<?xml version="1.0" standalone="no"?>
<!DOCTYPE svg PUBLIC "-//W3C//DTD SVG 20010904//EN"
 "http://www.w3.org/TR/2001/REC-SVG-20010904/DTD/svg10.dtd">
<svg version="1.0" xmlns="http://www.w3.org/2000/svg"
 width="473.000000pt" height="465.000000pt" viewBox="0 0 473.000000 465.000000"
 preserveAspectRatio="xMidYMid meet">

<g transform="translate(0.000000,465.000000) scale(0.100000,-0.100000)"
fill="#000000" stroke="none">
<path d="M2199 4496 c-2 -2 -42 -6 -89 -9 -105 -8 -172 -20 -321 -58 -483
-123 -933 -421 -1228 -814 -227 -301 -364 -620 -428 -995 -24 -136 -27 -182
-27 -376 0 -187 3 -226 16 -246 31 -47 232 -250 309 -311 156 -125 320 -204
445 -214 81 -7 118 7 185 69 31 29 83 76 116 104 71 62 117 142 134 236 18 97
1 146 -151 453 -199 402 -234 536 -175 664 14 30 39 69 56 88 36 41 37 86 3
91 -25 3 -156 -97 -196 -150 -123 -161 -105 -276 110 -718 155 -320 183 -409
167 -535 -10 -80 -51 -126 -121 -132 -170 -17 -439 131 -594 326 -70 87 -90
130 -89 188 2 61 -20 106 -101 207 l-61 77 12 87 c82 636 419 1186 945 1544
530 361 1220 471 1835 292 153 -44 273 -92 418 -167 105 -53 115 -57 130 -42
15 15 14 17 -4 31 -36 27 -278 142 -365 174 -182 67 -384 113 -565 130 -105
10 -357 14 -366 6z"/>
<path d="M3908 3673 c-43 -36 -51 -45 -105 -127 -212 -319 -426 -953 -573
-1699 -44 -223 -43 -225 43 -287 53 -38 75 -35 88 11 52 176 84 251 146 345
34 51 36 74 8 74 -7 0 -35 -25 -61 -56 -27 -31 -50 -51 -52 -45 -8 25 61 374
114 571 80 298 182 568 295 778 147 274 210 327 319 272 29 -15 50 -39 88
-102 152 -254 243 -497 298 -803 26 -142 26 -537 0 -680 -87 -488 -285 -873
-624 -1213 -335 -336 -805 -562 -1283 -618 -170 -19 -457 -15 -609 11 -543 90
-1031 376 -1370 801 -70 87 -161 223 -200 297 -26 48 -34 54 -59 38 -18 -12 9
-66 102 -205 92 -139 160 -221 296 -356 313 -313 689 -514 1131 -609 140 -30
229 -36 485 -35 171 0 254 5 325 18 480 87 892 298 1222 629 342 342 550 745
635 1232 25 145 25 560 -1 700 -57 313 -143 544 -302 813 -50 85 -82 127 -131
170 -122 108 -166 123 -225 75z"/>
<path d="M1429 3330 c-99 -33 -256 -105 -281 -127 -24 -21 -23 -40 2 -53 16
-8 42 -3 125 26 120 41 201 49 218 22 32 -49 -54 -284 -113 -308 -47 -20 -41
-54 18 -91 96 -61 124 -50 194 72 47 81 118 273 118 317 0 31 -40 69 -81 77
-24 4 -41 17 -56 40 -36 55 -49 57 -144 25z"/>
<path d="M2036 3214 c-43 -44 -101 -174 -181 -408 -42 -121 -68 -182 -81 -189
-10 -6 -53 -22 -94 -36 -71 -24 -75 -28 -75 -55 0 -31 7 -35 97 -50 l36 -7
-24 -87 c-33 -119 -98 -394 -123 -522 -34 -175 -40 -222 -28 -247 12 -27 125
-93 159 -93 41 0 278 258 278 302 0 41 -51 25 -105 -32 -50 -54 -145 -130
-162 -130 -14 0 -15 12 -10 88 7 104 10 120 48 287 37 162 116 426 132 441 7
6 72 16 145 22 133 11 162 20 162 51 0 35 -19 40 -134 35 -63 -3 -117 -1 -125
4 -15 11 -7 40 61 222 81 214 152 319 220 325 18 2 37 3 41 4 5 1 7 11 5 23
-2 17 -21 32 -68 55 -88 45 -129 44 -174 -3z"/>
<path d="M4177 2630 c-13 -19 -16 -19 -50 -5 -20 8 -49 15 -64 15 -57 0 -178
-163 -265 -357 -31 -68 -35 -73 -59 -68 -16 4 -30 1 -38 -9 -10 -11 -7 -19 13
-38 l25 -23 -29 -98 c-51 -169 -72 -326 -50 -367 15 -27 155 -131 197 -145 44
-15 77 -7 135 33 66 46 130 108 216 209 101 119 136 169 128 188 -11 29 -39
14 -135 -75 -119 -111 -229 -195 -296 -226 -97 -46 -109 -32 -103 109 5 93 46
291 67 326 6 10 25 9 89 -3 170 -32 298 28 337 158 15 48 23 365 11 385 -4 6
-31 11 -61 11 -43 0 -57 -4 -68 -20z m-9 -231 c2 -120 0 -137 -18 -167 -11
-18 -36 -40 -55 -48 -45 -18 -185 -19 -185 -1 0 22 77 173 119 236 42 61 108
124 126 118 6 -2 11 -58 13 -138z"/>
<path d="M2292 2606 c-11 -11 -45 -58 -76 -103 -32 -46 -62 -85 -67 -88 -13
-9 -11 -55 2 -55 7 0 42 25 79 55 37 30 73 55 80 55 14 0 11 -38 -26 -298 -37
-258 -89 -444 -141 -504 -9 -10 -13 -26 -10 -40 8 -30 89 -118 109 -118 72 0
302 261 527 598 45 68 84 122 86 120 4 -4 -46 -235 -80 -368 -176 -689 -390
-1107 -636 -1240 -61 -33 -69 -35 -164 -35 -93 0 -105 2 -168 33 -37 18 -103
60 -146 93 -85 63 -104 70 -121 40 -21 -41 26 -98 161 -193 134 -96 248 -134
376 -126 297 19 567 426 779 1175 91 323 204 812 204 883 0 45 -4 56 -30 80
-39 37 -88 56 -108 44 -9 -6 -22 -36 -29 -67 -20 -91 -96 -230 -241 -442 -117
-173 -281 -375 -302 -375 -4 0 -1 21 7 48 15 50 77 329 87 397 4 22 16 94 27
160 25 140 30 258 12 276 -8 8 -45 13 -92 15 -70 1 -82 -1 -99 -20z"/>
</g>
</svg>
